<svg width="110" height="110" viewBox="0 0 110 110" fill="none" xmlns="http://www.w3.org/2000/svg">
<path d="M53.5938 63.04L53.8867 63.5771C53.9844 63.5771 54.0902 63.3818 54.2041 62.9912L60.6494 42.1172C60.8285 41.5475 60.918 41.0837 60.918 40.7256C60.918 39.8467 60.3971 39.4072 59.3555 39.4072C58.8835 39.4072 58.4766 39.2852 58.1348 39.041C57.8092 38.7969 57.6465 38.5039 57.6465 38.1621C57.6465 37.7552 57.8255 37.4378 58.1836 37.21C58.5417 36.9658 58.9811 36.8438 59.502 36.8438C59.7461 36.8438 60.1937 36.9089 60.8447 37.0391C61.4958 37.153 62.1631 37.21 62.8467 37.21C63.2861 37.21 63.9616 37.153 64.873 37.0391C65.8008 36.9089 66.4925 36.8438 66.9482 36.8438C68.055 36.8438 68.6084 37.2425 68.6084 38.04C68.6084 38.4632 68.4294 38.7806 68.0713 38.9922C67.7295 39.2038 67.3877 39.3096 67.0459 39.3096C66.2972 39.3096 65.5648 39.5944 64.8486 40.1641C64.1488 40.7174 63.6523 41.4661 63.3594 42.4102C59.86 54.2103 56.8245 64.1224 54.2529 72.1465L53.96 73.1719C53.8135 73.6927 53.5286 73.9531 53.1055 73.9531C52.8776 73.9531 52.666 73.8555 52.4707 73.6602C52.2754 73.4648 52.0557 72.9928 51.8115 72.2441L43.999 48.6602C43.82 48.123 43.6898 47.8545 43.6084 47.8545C43.527 47.8545 43.4049 48.123 43.2422 48.6602L36.3086 72.2441C36.0807 73.0091 35.8773 73.473 35.6982 73.6357C35.5192 73.8148 35.3158 73.9043 35.0879 73.9043C34.7461 73.9043 34.5101 73.7904 34.3799 73.5625C34.266 73.3509 34.0869 72.8789 33.8428 72.1465L23.9551 42.2393C23.6458 41.3441 23.2878 40.6768 22.8809 40.2373C22.4902 39.7816 21.9368 39.4967 21.2207 39.3828C20.5046 39.2689 20.0407 39.1387 19.8291 38.9922C19.6175 38.8294 19.5117 38.5283 19.5117 38.0889C19.5117 37.2588 20.0895 36.8438 21.2451 36.8438C21.6357 36.8438 22.1729 36.917 22.8564 37.0635C23.5563 37.1937 24.3538 37.2588 25.249 37.2588C25.9326 37.2588 26.6732 37.1855 27.4707 37.0391C28.2682 36.8763 28.7972 36.7949 29.0576 36.7949C29.6436 36.7949 30.1318 36.917 30.5225 37.1611C30.9131 37.4053 31.1084 37.7389 31.1084 38.1621C31.1084 38.9434 30.5387 39.3584 29.3994 39.4072C28.5205 39.4398 28.0811 39.7327 28.0811 40.2861C28.0811 40.5465 28.2113 41.0348 28.4717 41.751C29.6761 44.9574 32.0199 51.9723 35.5029 62.7959C35.6331 63.1702 35.7389 63.3574 35.8203 63.3574C35.9017 63.3574 35.9912 63.1865 36.0889 62.8447L43.4619 38.1621C43.6084 37.625 43.7386 37.2751 43.8525 37.1123C43.9665 36.9333 44.1455 36.8438 44.3896 36.8438C44.764 36.8438 45.0651 37.1937 45.293 37.8936L53.5938 63.04ZM73.8086 43.2402C73.8086 44.054 74.0853 44.8841 74.6387 45.7305C75.2083 46.5605 76.6488 47.7975 78.96 49.4414C83.4033 52.5827 86.3574 55.1217 87.8223 57.0586C89.2871 58.9792 90.0195 61.0299 90.0195 63.2109C90.0195 66.3034 88.8232 68.7122 86.4307 70.4375C84.0381 72.1465 81.4176 73.001 78.5693 73.001C76.5511 73.001 74.4759 72.5859 72.3438 71.7559C70.2279 70.9095 69.1699 70.0225 69.1699 69.0947C69.1699 68.8669 69.1943 68.4437 69.2432 67.8252C69.292 67.1904 69.3164 66.401 69.3164 65.457C69.3164 65.1315 69.2839 64.7409 69.2188 64.2852C69.1699 63.8132 69.1455 63.5039 69.1455 63.3574C69.1455 62.7552 69.5036 62.4541 70.2197 62.4541C71.0173 62.4541 71.4648 63.0563 71.5625 64.2607C71.7578 66.2464 72.4577 67.7926 73.6621 68.8994C74.8665 70.0062 76.5348 70.5596 78.667 70.5596C80.8154 70.5596 82.5895 69.9574 83.9893 68.7529C85.4053 67.5322 86.1133 65.9453 86.1133 63.9922C86.1133 62.8203 85.6331 61.5752 84.6729 60.2568C83.7288 58.9385 81.2386 56.847 77.2021 53.9824C75.542 52.8105 74.2318 51.8177 73.2715 51.0039C72.3275 50.1738 71.5299 49.1973 70.8789 48.0742C70.2441 46.9512 69.9268 45.6735 69.9268 44.2412C69.9268 41.9137 70.9766 39.985 73.0762 38.4551C75.1921 36.9251 77.6253 36.1602 80.376 36.1602C81.9385 36.1602 83.6068 36.5508 85.3809 37.332C87.1712 38.097 88.0664 39.0003 88.0664 40.042C88.0664 40.1885 88.0583 40.4245 88.042 40.75C88.0257 41.0592 88.0176 41.5231 88.0176 42.1416C88.0176 42.3044 88.0501 42.6217 88.1152 43.0938C88.1152 44.168 87.749 44.7051 87.0166 44.7051C86.7562 44.7051 86.4958 44.583 86.2354 44.3389C85.9912 44.0785 85.8691 43.8018 85.8691 43.5088C85.8691 41.9137 85.3239 40.693 84.2334 39.8467C83.1592 38.984 81.8408 38.5527 80.2783 38.5527C78.5042 38.5527 76.9824 39.041 75.7129 40.0176C74.4434 40.9941 73.8086 42.0684 73.8086 43.2402Z" fill="white"/>
<path d="M26.3661 46.7281C26.3661 48.5326 26.5683 50.2739 26.3661 52.0829C26.1473 54.0399 25.9371 55.9132 25.9371 57.8826" stroke="white" stroke-linecap="round" stroke-linejoin="round"/>
<path d="M59.9726 51.5903C60.8223 55.0363 61.5648 58.5501 62.2607 62.0298" stroke="white" stroke-linecap="round" stroke-linejoin="round"/>
<path d="M38.9507 60.4567C38.9507 61.701 39.2367 62.8689 39.2367 64.1113C39.2367 65.4678 39.5921 66.5937 39.8087 67.8931" stroke="white" stroke-linecap="round" stroke-linejoin="round"/>
<path d="M72.5571 49.4452C72.5571 50.6343 72.5571 51.8233 72.5571 53.0124C72.5571 53.8242 72.2587 54.5246 72.1281 55.3085" stroke="white" stroke-linecap="round" stroke-linejoin="round"/>
<path d="M76.9903 38.2907C77.3446 38.8717 77.7054 39.3155 77.7054 40.0068C77.7054 40.5414 77.2331 40.7054 77.0221 41.1508C76.7651 41.6934 77.2433 42.7678 77.4194 43.2959" stroke="white" stroke-linecap="round" stroke-linejoin="round"/>
<path d="M82.2816 56.8815C82.3225 57.1322 82.8197 58.4588 82.6788 58.7406C82.4615 59.1752 82.0065 59.3458 81.8525 59.8847C81.5554 60.9247 81.8028 61.7374 82.1386 62.7448" stroke="white" stroke-linecap="round" stroke-linejoin="round"/>
<path d="M73.8442 71.4682C73.4716 72.4231 72.7001 73.1982 72.7001 74.2568C72.7001 75.1939 73.416 76.6449 72.1281 76.9024" stroke="white" stroke-linecap="round" stroke-linejoin="round"/>
<path d="M49.5331 64.6039C48.2492 65.5479 46.9784 66.937 47.6105 68.7431C47.7747 69.2123 48.8769 71.4682 47.8171 71.4682" stroke="white" stroke-linecap="round" stroke-linejoin="round"/>
<path d="M22.6479 39.2917C22.1753 40.5028 22.0759 41.5808 22.0759 42.8669C22.0759 43.6378 22.6349 45.0185 21.7899 45.441" stroke="white" stroke-linecap="round" stroke-linejoin="round"/>
<path d="M28.9402 39.8638C29.1677 40.4123 29.4137 40.826 29.9413 41.119C30.2174 41.2725 30.6053 41.5291 30.6483 41.8738C30.7481 42.6719 30.632 43.617 31.0853 44.297" stroke="white" stroke-linecap="round" stroke-linejoin="round"/>
<path d="M30.9423 48.0151C31.9064 48.7808 32.777 49.2389 33.294 50.3032C33.4612 50.6476 33.8258 52.031 34.0884 52.1623" stroke="white" stroke-linecap="round" stroke-linejoin="round"/>
<path d="M60.1156 46.0131C58.7743 46.2748 58.0338 46.6974 57.7163 48.1264C57.5523 48.8643 56.4677 50.6244 55.5394 50.1602" stroke="white" stroke-linecap="round" stroke-linejoin="round"/>
<path d="M31.0853 65.1759C30.166 65.7364 29.4424 66.5574 29.687 67.75C29.7904 68.2542 30.2527 69.3104 29.6552 69.6091" stroke="white" stroke-linecap="round" stroke-linejoin="round"/>
<path d="M80.1365 51.0183C81.026 51.37 81.9438 51.6242 82.8457 51.9399C83.3994 52.1337 84.0061 51.9223 84.5697 52.0511C85.1569 52.1854 85.5369 52.5407 85.8567 53.0204" stroke="white" stroke-linecap="round" stroke-linejoin="round"/>
<path d="M89.2889 59.7417C90.2675 60.4325 90.6099 60.117 91.577 60.1707C91.9897 60.1936 92.3695 61.145 92.578 61.4578" stroke="white" stroke-linecap="round" stroke-linejoin="round"/>
<path d="M79.7075 70.4671C79.9575 69.1542 79.5935 68.1887 78.2774 67.75" stroke="white" stroke-linecap="round" stroke-linejoin="round"/>
<path d="M69.983 68.179C68.9992 67.1712 67.838 66.0943 67.838 64.6039" stroke="white" stroke-linecap="round" stroke-linejoin="round"/>
<path d="M55.5394 66.1769C56.137 67.1808 56.9695 68.4618 56.9695 69.6727C56.9695 70.4866 56.9107 71.1626 57.8275 71.4682" stroke="white" stroke-linecap="round" stroke-linejoin="round"/>
<path d="M46.244 56.1665C45.5369 56.6808 44.473 57.2617 44.3929 58.2639C44.3116 59.2796 44.6709 60.2933 44.6709 61.3147" stroke="white" stroke-linecap="round" stroke-linejoin="round"/>
<path d="M30.6563 47.5861C30.6482 47.2543 30.5991 47.0285 30.5133 46.7281" stroke="white" stroke-linecap="round" stroke-linejoin="round"/>
<path d="M30.2273 46.2991C29.8273 46.1332 29.4477 45.9093 29.0832 45.7271" stroke="white" stroke-linecap="round" stroke-linejoin="round"/>
<path d="M46.244 44.011C48.4796 44.5017 49.0205 47.1765 49.6444 49.048C49.7612 49.3984 50.1213 49.8084 50.423 50.0173C50.7996 50.278 51.0607 50.6543 51.3922 50.8753" stroke="white" stroke-linecap="round" stroke-linejoin="round"/>
<path d="M51.1062 56.1665C52.2023 55.9912 53.1433 56.0935 53.6803 57.1676" stroke="white" stroke-linecap="round" stroke-linejoin="round"/>
<path d="M64.9778 39.2917C65.2829 40.9318 65.3612 42.5147 66.3761 43.868C66.9454 44.627 67.4089 45.6278 67.4089 46.5851C67.4089 47.17 66.9188 47.4222 66.6939 47.8721" stroke="white" stroke-linecap="round" stroke-linejoin="round"/>
<path d="M30.7993 65.1759C31.4107 64.9224 31.9564 64.5974 32.5154 64.3179" stroke="white" stroke-linecap="round" stroke-linejoin="round"/>
</svg>
